<?xml version="1.0" encoding="utf-8"?>
<svg version="1.1" xmlns:xlink="http://www.w3.org/1999/xlink" width="20px" height="18px" xmlns="http://www.w3.org/2000/svg">
  <g transform="matrix(1 0 0 1 -735 -204 )">
    <path d="M 19.2067307692308 4.11647727272727  C 19.7355769230769 4.67897727272727  20 5.35227272727273  20 6.13636363636364  L 20 15.1363636363636  C 20 15.9204545454545  19.7355769230769 16.59375  19.2067307692308 17.15625  C 18.6778846153846 17.71875  18.0448717948718 18  17.3076923076923 18  L 2.69230769230769 18  C 1.95512820512821 18  1.32211538461539 17.71875  0.793269230769231 17.15625  C 0.264423076923077 16.59375  0 15.9204545454545  0 15.1363636363636  L 0 2.86363636363636  C 0 2.07954545454545  0.264423076923077 1.40625  0.793269230769231 0.84375  C 1.32211538461539 0.28125  1.95512820512821 0  2.69230769230769 0  L 6.53846153846154 0  C 7.27564102564103 0  7.90865384615385 0.28125  8.4375 0.84375  C 8.96634615384615 1.40625  9.23076923076923 2.07954545454545  9.23076923076923 2.86363636363636  L 9.23076923076923 3.27272727272727  L 17.3076923076923 3.27272727272727  C 18.0448717948718 3.27272727272727  18.6778846153846 3.55397727272727  19.2067307692308 4.11647727272727  Z " fill-rule="nonzero" fill="#aaaaaa" stroke="none" transform="matrix(1 0 0 1 735 204 )" />
  </g>
</svg>