<?xml version="1.0" encoding="utf-8"?>
<svg version="1.1" xmlns:xlink="http://www.w3.org/1999/xlink" width="20px" height="18px" xmlns="http://www.w3.org/2000/svg">
  <g transform="matrix(1 0 0 1 -765 -204 )">
    <path d="M 15.15625 16.34625  C 15.3084935897436 16.20375  15.3846153846154 16.035  15.3846153846154 15.84  C 15.3846153846154 15.645  15.3084935897436 15.47625  15.15625 15.33375  C 15.0040064102564 15.19125  14.823717948718 15.12  14.6153846153846 15.12  C 14.4070512820513 15.12  14.2267628205128 15.19125  14.0745192307692 15.33375  C 13.9222756410256 15.47625  13.8461538461538 15.645  13.8461538461538 15.84  C 13.8461538461538 16.035  13.9222756410256 16.20375  14.0745192307692 16.34625  C 14.2267628205128 16.48875  14.4070512820513 16.56  14.6153846153846 16.56  C 14.823717948718 16.56  15.0040064102564 16.48875  15.15625 16.34625  Z M 18.2331730769231 16.34625  C 18.3854166666667 16.20375  18.4615384615385 16.035  18.4615384615385 15.84  C 18.4615384615385 15.645  18.3854166666667 15.47625  18.2331730769231 15.33375  C 18.0809294871795 15.19125  17.900641025641 15.12  17.6923076923077 15.12  C 17.4839743589744 15.12  17.3036858974359 15.19125  17.1514423076923 15.33375  C 16.9991987179487 15.47625  16.9230769230769 15.645  16.9230769230769 15.84  C 16.9230769230769 16.035  16.9991987179487 16.20375  17.1514423076923 16.34625  C 17.3036858974359 16.48875  17.4839743589744 16.56  17.6923076923077 16.56  C 17.900641025641 16.56  18.0809294871795 16.48875  18.2331730769231 16.34625  Z M 19.6634615384615 12.555  C 19.8878205128205 12.765  20 13.02  20 13.32  L 20 16.92  C 20 17.22  19.8878205128205 17.475  19.6634615384615 17.685  C 19.4391025641026 17.895  19.1666666666667 18  18.8461538461538 18  L 1.15384615384615 18  C 0.833333333333333 18  0.560897435897436 17.895  0.336538461538462 17.685  C 0.112179487179487 17.475  0 17.22  0 16.92  L 0 13.32  C 0 13.02  0.112179487179487 12.765  0.336538461538462 12.555  C 0.560897435897436 12.345  0.833333333333333 12.24  1.15384615384615 12.24  L 6.28605769230769 12.24  C 6.45432692307692 12.66  6.73677884615385 13.005  7.13341346153846 13.275  C 7.53004807692308 13.545  7.97275641025641 13.68  8.46153846153846 13.68  L 11.5384615384615 13.68  C 12.0272435897436 13.68  12.4699519230769 13.545  12.8665865384615 13.275  C 13.2632211538462 13.005  13.5456730769231 12.66  13.7139423076923 12.24  L 18.8461538461538 12.24  C 19.1666666666667 12.24  19.4391025641026 12.345  19.6634615384615 12.555  Z M 15.9254807692308 5.25375  C 16.1738782051282 5.47875  16.229967948718 5.7375  16.09375 6.03  C 15.9575320512821 6.33  15.7211538461538 6.48  15.3846153846154 6.48  L 12.3076923076923 6.48  L 12.3076923076923 11.52  C 12.3076923076923 11.715  12.2315705128205 11.88375  12.0793269230769 12.02625  C 11.9270833333333 12.16875  11.7467948717949 12.24  11.5384615384615 12.24  L 8.46153846153846 12.24  C 8.25320512820513 12.24  8.07291666666667 12.16875  7.92067307692308 12.02625  C 7.76842948717949 11.88375  7.69230769230769 11.715  7.69230769230769 11.52  L 7.69230769230769 6.48  L 4.61538461538462 6.48  C 4.27884615384615 6.48  4.04246794871795 6.33  3.90625 6.03  C 3.77003205128205 5.7375  3.8261217948718 5.47875  4.07451923076923 5.25375  L 9.45913461538462 0.213749999999999  C 9.60336538461539 0.0712499999999991  9.78365384615385 0  10 0  C 10.2163461538462 0  10.3966346153846 0.0712499999999991  10.5408653846154 0.213749999999999  L 15.9254807692308 5.25375  Z " fill-rule="nonzero" fill="#aaaaaa" stroke="none" transform="matrix(1 0 0 1 765 204 )" />
  </g>
</svg>