<?xml version="1.0" encoding="utf-8"?>
<svg version="1.1" xmlns:xlink="http://www.w3.org/1999/xlink" width="17px" height="15px" xmlns="http://www.w3.org/2000/svg">
  <g transform="matrix(1 0 0 1 -423 -314 )">
    <path d="M 16.3257211538462 3.43039772727273  C 16.7752403846154 3.89914772727273  17 4.46022727272727  17 5.11363636363636  L 17 12.6136363636364  C 17 13.2670454545455  16.7752403846154 13.828125  16.3257211538462 14.296875  C 15.8762019230769 14.765625  15.338141025641 15  14.7115384615385 15  L 2.28846153846154 15  C 1.66185897435897 15  1.12379807692308 14.765625  0.674278846153846 14.296875  C 0.224759615384615 13.828125  0 13.2670454545455  0 12.6136363636364  L 0 2.38636363636364  C 0 1.73295454545454  0.224759615384615 1.171875  0.674278846153846 0.703125  C 1.12379807692308 0.234375  1.66185897435897 0  2.28846153846154 0  L 5.55769230769231 0  C 6.18429487179487 0  6.72235576923077 0.234375  7.171875 0.703125  C 7.62139423076923 1.171875  7.84615384615385 1.73295454545454  7.84615384615385 2.38636363636364  L 7.84615384615385 2.72727272727273  L 14.7115384615385 2.72727272727273  C 15.338141025641 2.72727272727273  15.8762019230769 2.96164772727273  16.3257211538462 3.43039772727273  Z " fill-rule="nonzero" fill="#aaaaaa" stroke="none" transform="matrix(1 0 0 1 423 314 )" />
  </g>
</svg>