<?xml version="1.0" encoding="utf-8"?>
<svg version="1.1" xmlns:xlink="http://www.w3.org/1999/xlink" width="17px" height="15px" xmlns="http://www.w3.org/2000/svg">
  <g transform="matrix(1 0 0 1 -403 -314 )">
    <path d="M 12.8828125 13.621875  C 13.0122195512821 13.503125  13.0769230769231 13.3625  13.0769230769231 13.2  C 13.0769230769231 13.0375  13.0122195512821 12.896875  12.8828125 12.778125  C 12.753405448718 12.659375  12.6001602564103 12.6  12.4230769230769 12.6  C 12.2459935897436 12.6  12.0927483974359 12.659375  11.9633413461538 12.778125  C 11.8339342948718 12.896875  11.7692307692308 13.0375  11.7692307692308 13.2  C 11.7692307692308 13.3625  11.8339342948718 13.503125  11.9633413461538 13.621875  C 12.0927483974359 13.740625  12.2459935897436 13.8  12.4230769230769 13.8  C 12.6001602564103 13.8  12.753405448718 13.740625  12.8828125 13.621875  Z M 15.4981971153846 13.621875  C 15.6276041666667 13.503125  15.6923076923077 13.3625  15.6923076923077 13.2  C 15.6923076923077 13.0375  15.6276041666667 12.896875  15.4981971153846 12.778125  C 15.3687900641026 12.659375  15.2155448717949 12.6  15.0384615384615 12.6  C 14.8613782051282 12.6  14.7081330128205 12.659375  14.5787259615385 12.778125  C 14.4493189102564 12.896875  14.3846153846154 13.0375  14.3846153846154 13.2  C 14.3846153846154 13.3625  14.4493189102564 13.503125  14.5787259615385 13.621875  C 14.7081330128205 13.740625  14.8613782051282 13.8  15.0384615384615 13.8  C 15.2155448717949 13.8  15.3687900641026 13.740625  15.4981971153846 13.621875  Z M 16.7139423076923 10.4625  C 16.9046474358974 10.6375  17 10.85  17 11.1  L 17 14.1  C 17 14.35  16.9046474358974 14.5625  16.7139423076923 14.7375  C 16.5232371794872 14.9125  16.2916666666667 15  16.0192307692308 15  L 0.980769230769231 15  C 0.708333333333333 15  0.476762820512821 14.9125  0.286057692307692 14.7375  C 0.0953525641025641 14.5625  0 14.35  0 14.1  L 0 11.1  C 0 10.85  0.0953525641025641 10.6375  0.286057692307692 10.4625  C 0.476762820512821 10.2875  0.708333333333333 10.2  0.980769230769231 10.2  L 5.34314903846154 10.2  C 5.48617788461538 10.55  5.72626201923077 10.8375  6.06340144230769 11.0625  C 6.40054086538462 11.2875  6.77684294871795 11.4  7.19230769230769 11.4  L 9.80769230769231 11.4  C 10.2231570512821 11.4  10.5994591346154 11.2875  10.9365985576923 11.0625  C 11.2737379807692 10.8375  11.5138221153846 10.55  11.6568509615385 10.2  L 16.0192307692308 10.2  C 16.2916666666667 10.2  16.5232371794872 10.2875  16.7139423076923 10.4625  Z M 13.5366586538462 4.378125  C 13.747796474359 4.565625  13.7954727564103 4.78125  13.6796875 5.025  C 13.5639022435897 5.275  13.3629807692308 5.4  13.0769230769231 5.4  L 10.4615384615385 5.4  L 10.4615384615385 9.6  C 10.4615384615385 9.7625  10.3968349358974 9.903125  10.2674278846154 10.021875  C 10.1380208333333 10.140625  9.98477564102564 10.2  9.80769230769231 10.2  L 7.19230769230769 10.2  C 7.01522435897436 10.2  6.86197916666667 10.140625  6.73257211538462 10.021875  C 6.60316506410256 9.903125  6.53846153846154 9.7625  6.53846153846154 9.6  L 6.53846153846154 5.4  L 3.92307692307692 5.4  C 3.63701923076923 5.4  3.43609775641026 5.275  3.3203125 5.025  C 3.20452724358974 4.78125  3.25220352564103 4.565625  3.46334134615385 4.378125  L 8.04026442307692 0.178125  C 8.16286057692308 0.0593749999999993  8.31610576923077 0  8.5 0  C 8.68389423076923 0  8.83713942307692 0.0593749999999993  8.95973557692308 0.178125  L 13.5366586538462 4.378125  Z " fill-rule="nonzero" fill="#aaaaaa" stroke="none" transform="matrix(1 0 0 1 403 314 )" />
  </g>
</svg>