<?xml version="1.0" encoding="utf-8"?>
<svg version="1.1" xmlns:xlink="http://www.w3.org/1999/xlink" width="12px" height="12px" xmlns="http://www.w3.org/2000/svg">
  <g transform="matrix(1 0 0 1 -83 -139 )">
    <path d="M 5.14285714285714 3.42857142857143  L 5.14285714285714 11.1428571428571  L 11.1428571428571 11.1428571428571  L 11.1428571428571 6.85714285714286  L 8.35714285714286 6.85714285714286  C 8.17857142857143 6.85714285714286  8.02678571428572 6.79464285714286  7.90178571428572 6.66964285714286  C 7.77678571428572 6.54464285714286  7.71428571428572 6.39285714285714  7.71428571428572 6.21428571428571  L 7.71428571428572 3.42857142857143  L 5.14285714285714 3.42857142857143  Z M 6.79352678571428 1.65066964285714  C 6.8359375 1.60825892857143  6.85714285714286 1.55803571428571  6.85714285714286 1.5  L 6.85714285714286 1.07142857142857  C 6.85714285714286 1.01339285714286  6.8359375 0.963169642857142  6.79352678571428 0.920758928571428  C 6.75111607142857 0.878348214285713  6.70089285714286 0.857142857142857  6.64285714285714 0.857142857142857  L 1.92857142857143 0.857142857142857  C 1.87053571428571 0.857142857142857  1.8203125 0.878348214285713  1.77790178571429 0.920758928571428  C 1.73549107142857 0.963169642857142  1.71428571428571 1.01339285714286  1.71428571428571 1.07142857142857  L 1.71428571428571 1.5  C 1.71428571428571 1.55803571428571  1.73549107142857 1.60825892857143  1.77790178571429 1.65066964285714  C 1.8203125 1.69308035714286  1.87053571428571 1.71428571428571  1.92857142857143 1.71428571428571  L 6.64285714285714 1.71428571428571  C 6.70089285714286 1.71428571428571  6.75111607142857 1.69308035714286  6.79352678571428 1.65066964285714  Z M 8.57142857142857 3.99776785714286  L 8.57142857142857 6  L 10.5736607142857 6  L 8.57142857142857 3.99776785714286  Z M 11.8660714285714 6.26785714285714  C 11.9553571428571 6.48214285714286  12 6.67857142857143  12 6.85714285714286  L 12 11.3571428571429  C 12 11.5357142857143  11.9375 11.6875  11.8125 11.8125  C 11.6875 11.9375  11.5357142857143 12  11.3571428571429 12  L 4.92857142857143 12  C 4.75 12  4.59821428571429 11.9375  4.47321428571429 11.8125  C 4.34821428571429 11.6875  4.28571428571429 11.5357142857143  4.28571428571429 11.3571428571429  L 4.28571428571429 10.2857142857143  L 0.642857142857143 10.2857142857143  C 0.464285714285714 10.2857142857143  0.3125 10.2232142857143  0.1875 10.0982142857143  C 0.0625 9.97321428571428  0 9.82142857142857  0 9.64285714285714  L 0 0.642857142857143  C 0 0.464285714285714  0.0625 0.3125  0.1875 0.1875  C 0.3125 0.0625000000000004  0.464285714285714 0  0.642857142857143 0  L 7.92857142857143 0  C 8.10714285714286 0  8.25892857142857 0.0625000000000004  8.38392857142857 0.1875  C 8.50892857142857 0.3125  8.57142857142857 0.464285714285714  8.57142857142857 0.642857142857143  L 8.57142857142857 2.83928571428571  C 8.66517857142857 2.89732142857143  8.74553571428572 2.95982142857143  8.8125 3.02678571428571  L 11.5446428571429 5.75892857142857  C 11.6696428571429 5.88392857142857  11.7767857142857 6.05357142857143  11.8660714285714 6.26785714285714  Z " fill-rule="nonzero" fill="#797979" stroke="none" transform="matrix(1 0 0 1 83 139 )" />
  </g>
</svg>